<?xml version="1.0" standalone="no"?><!DOCTYPE svg PUBLIC "-//W3C//DTD SVG 1.1//EN" "http://www.w3.org/Graphics/SVG/1.1/DTD/svg11.dtd"><svg t="1712383171789" class="icon" viewBox="0 0 1024 1024" version="1.1" xmlns="http://www.w3.org/2000/svg" p-id="9509" xmlns:xlink="http://www.w3.org/1999/xlink" width="200" height="200"><path d="M121.258667 304.853333l18.304 20.48-139.562667 392.96h102.954667l42.282666-112.64h151.594667l12.8 112.64h108.629333l-48-413.44H121.429333z m151.594666 69.973334l18.304 160.853333H169.898667l60.629333-160.853333h42.325333z m177.450667-69.973334l18.304 20.48-42.325333 392.96h114.986666l18.304-140.373333h212.224a44.245333 44.245333 0 0 0 28.714667-13.653333 68.992 68.992 0 0 0 19.882667-34.986667l24.021333-224.426667h-394.112z m267.178667 69.973334l-18.346667 133.12h-127.573333l12.8-133.12h133.290666z m160.384-69.973334l18.346666 27.733334-42.325333 385.706666H968.789333l54.954667-413.44h-145.92z" fill="#1296db" p-id="9510"></path></svg>